<?xml version="1.0" encoding="utf-8"?>
<!-- Generator: Adobe Illustrator 19.0.0, SVG Export Plug-In . SVG Version: 6.00 Build 0)  -->
<svg version="1.1" xmlns="http://www.w3.org/2000/svg" xmlns:xlink="http://www.w3.org/1999/xlink" x="0px" y="0px"
	 viewBox="0 0 158.4 158.4" style="enable-background:new 0 0 158.4 158.4;" xml:space="preserve">
<style type="text/css">
	.st0{display:none;}
	.st1{fill:#FFFFFF;}
</style>
<g id="Layer_1" class="st0">
</g>
<g id="Layer_2">
	<g id="XMLID_4_">
		<circle id="XMLID_11_" cx="79.2" cy="79.2" r="79.2"/>
		<g id="XMLID_5_">
			<g id="XMLID_8_">
				<g id="XMLID_10_">
					<path id="XMLID_28_" class="st1" d="M24.3,74.7c10.6-0.3,11.6-5.3,11.6-9.4c0-3.5-0.5-7.1-0.9-10.8c-0.5-3.7-0.8-7.5-0.8-10.9
						c0-13,9-18.7,23.2-18.7h5.4v11.8h-2.8c-6.9,0-9.3,3.7-9.3,9.8c0,2.5,0.5,5,0.8,7.9c0.3,2.8,0.8,5.9,0.8,9.4
						c0.2,10.5-4.6,14.4-13,16v0.3c8.4,1.7,13.2,5.7,13,16.2c0,3.6-0.5,6.8-0.8,9.7c-0.3,2.8-0.8,5.4-0.8,7.7c0,6.1,2.3,10,9.3,10
						h2.8v11.6h-5.5c-13.6,0-23.1-5-23.1-18.8c0-3.5,0.3-7.2,0.8-10.9s0.9-7.3,0.9-10.8c0-3.9-1.1-9.1-11.6-9.4V74.7z"/>
				</g>
				<g id="XMLID_9_">
					<path id="XMLID_26_" class="st1" d="M136.1,83.7c-10.6,0.3-11.6,5.3-11.6,9.4c0,3.5,0.5,7.1,0.9,10.8c0.5,3.7,0.8,7.5,0.8,10.9
						c0,13-9,18.7-23.2,18.7h-5.4v-11.8h2.8c6.9,0,9.3-3.7,9.3-9.8c0-2.5-0.5-5-0.8-7.9c-0.3-2.8-0.8-5.9-0.8-9.4
						c-0.2-10.5,4.6-14.4,13-16v-0.3c-8.4-1.7-13.2-5.7-13-16.2c0-3.6,0.5-6.8,0.8-9.7c0.3-2.8,0.8-5.4,0.8-7.7c0-6.1-2.3-10-9.3-10
						h-2.8V23.1h5.5c13.6,0,23.1,5,23.1,18.8c0,3.5-0.3,7.2-0.8,10.9s-0.9,7.3-0.9,10.8c0,3.9,1.1,9.1,11.6,9.4V83.7z"/>
				</g>
			</g>
			<g id="XMLID_6_">
				<g id="XMLID_7_">
					<path id="XMLID_23_" class="st1" d="M59.1,53c4.3-0.7,10.4-1.3,18.9-1.3c8.6,0,14.8,1.7,18.9,5c4,3.1,6.6,8.3,6.6,14.3
						s-2,11.2-5.7,14.7c-4.8,4.5-11.9,6.5-20.1,6.5c-1.8,0-3.5-0.1-4.8-0.3v22.2H59.1V53z M72.9,81.1c1.2,0.3,2.7,0.4,4.7,0.4
						c7.5,0,12-3.8,12-10.1c0-5.7-4-9.1-10.9-9.1c-2.9,0-4.8,0.3-5.8,0.6V81.1z"/>
				</g>
			</g>
		</g>
	</g>
	<g id="XMLID_22_">
	</g>
	<g id="XMLID_30_">
	</g>
	<g id="XMLID_31_">
	</g>
	<g id="XMLID_32_">
	</g>
	<g id="XMLID_33_">
	</g>
	<g id="XMLID_34_">
	</g>
	<g id="XMLID_35_">
	</g>
	<g id="XMLID_36_">
	</g>
	<g id="XMLID_37_">
	</g>
	<g id="XMLID_38_">
	</g>
	<g id="XMLID_39_">
	</g>
	<g id="XMLID_40_">
	</g>
	<g id="XMLID_41_">
	</g>
	<g id="XMLID_42_">
	</g>
	<g id="XMLID_43_">
	</g>
</g>
</svg>
