<?xml version="1.0" encoding="utf-8"?>
<!-- Generator: Adobe Illustrator 19.0.0, SVG Export Plug-In . SVG Version: 6.00 Build 0)  -->
<svg version="1.1" xmlns="http://www.w3.org/2000/svg" xmlns:xlink="http://www.w3.org/1999/xlink" x="0px" y="0px"
	 viewBox="0 0 2183.3 446" style="enable-background:new 0 0 2183.3 446;" xml:space="preserve">
<style type="text/css">
	.st0{fill:#FFFFFF;}
</style>
<g id="Capa_1">
	<circle cx="217.2" cy="217.2" r="217.2"/>
</g>
<g id="Capa_3">
	<g>
		<path class="st0" d="M67.5,205.3c28.9-0.8,31.9-14.4,31.9-25.8c0-9.5-1.3-19.3-2.5-29.6c-1.3-10.2-2.1-20.5-2.1-30
			c0-35.6,24.7-51.2,63.7-51.2h14.7V101h-7.5c-18.9,0-25.6,10.2-25.6,26.9c0,6.8,1.3,13.7,2.1,21.6c0.8,7.6,2.1,16.3,2.1,25.8
			c0.4,28.8-12.6,39.4-35.6,44v0.8c23.1,4.5,36.1,15.5,35.6,44.4c0,9.9-1.3,18.6-2.1,26.5c-0.8,7.6-2.1,14.8-2.1,21.2
			c0,16.7,6.3,27.3,25.6,27.3h7.5v31.9h-15.1c-37.3,0-63.3-13.7-63.3-51.6c0-9.5,0.8-19.7,2.1-30c1.3-10.2,2.5-20.1,2.5-29.6
			c0-10.6-2.9-25-31.9-25.8V205.3z"/>
	</g>
	<g>
		<path class="st0" d="M374.2,229.9c-28.9,0.8-31.9,14.4-31.9,25.8c0,9.5,1.3,19.3,2.5,29.6c1.3,10.2,2.1,20.5,2.1,30
			c0,35.6-24.7,51.2-63.7,51.2h-14.7v-32.2h7.5c18.9,0,25.6-10.2,25.6-26.9c0-6.8-1.3-13.7-2.1-21.6c-0.8-7.6-2.1-16.3-2.1-25.8
			c-0.4-28.8,12.6-39.4,35.6-44v-0.8c-23.1-4.5-36.1-15.5-35.6-44.4c0-9.9,1.3-18.6,2.1-26.5c0.8-7.6,2.1-14.8,2.1-21.2
			c0-16.7-6.3-27.3-25.6-27.3h-7.5V63.8h15.1c37.3,0,63.3,13.7,63.3,51.6c0,9.5-0.8,19.7-2.1,30c-1.3,10.2-2.5,20.1-2.5,29.6
			c0,10.6,2.9,25,31.9,25.8V229.9z"/>
	</g>
	<g>
		<path d="M457.7,213.3c0-19.2-0.5-31.7-1.1-42.8h34.8l1.3,23.9h1.1c6.6-18.9,22.6-26.9,35.1-26.9c3.7,0,5.6,0,8.5,0.5v38
			c-2.9-0.5-6.4-1.1-10.9-1.1c-14.9,0-25,8-27.7,20.5c-0.5,2.7-0.8,5.9-0.8,9v66h-40.4V213.3z"/>
		<path d="M685.1,234c0,47.6-33.8,69.4-68.6,69.4c-38,0-67.3-25-67.3-67s27.7-68.9,69.4-68.9C658.5,167.5,685.1,194.9,685.1,234z
			 M590.9,235.3c0,22.3,9.3,39.1,26.6,39.1c15.7,0,25.8-15.7,25.8-39.1c0-19.4-7.4-39.1-25.8-39.1
			C598.1,196.2,590.9,216.2,590.9,235.3z"/>
		<path d="M775.8,217.2v26.9h-69.7v-26.9H775.8z"/>
	</g>
	<g>
		<path d="M921.8,292.3c-12.1,4.3-35.1,10.1-58,10.1c-31.7,0-54.7-8.2-70.7-24.2c-16-15.4-24.8-38.8-24.5-65.2
			c0.3-59.6,42.3-93.6,99.3-93.6c22.4,0,39.7,4.5,48.2,8.8l-8.3,32.4c-9.5-4.3-21.4-7.7-40.5-7.7c-32.8,0-57.5,19.2-57.5,58
			c0,37,22.4,58.8,54.7,58.8c9,0,16.3-1.1,19.3-2.7v-37.5H857v-31.7h64.7V292.3z"/>
		<path d="M952,213.3c0-19.2-0.5-31.7-1-42.8h33.8l1.3,23.9h1c6.4-18.9,21.9-26.9,34.1-26.9c3.6,0,5.4,0,8.3,0.5v38
			c-2.8-0.5-6.2-1.1-10.6-1.1c-14.4,0-24.2,8-26.8,20.5c-0.5,2.7-0.8,5.9-0.8,9v66H952V213.3z"/>
		<path d="M1118.9,300.5l-2.3-13h-0.8c-8.3,10.4-21.2,16-36.1,16c-25.5,0-40.8-19.2-40.8-39.9c0-33.8,29.4-50,74-49.7v-1.9
			c0-6.9-3.6-16.8-23-16.8c-12.9,0-26.6,4.5-34.8,9.8l-7.2-26.1c8.8-5.1,26.1-11.4,49-11.4c42,0,55.5,25.5,55.5,56.1v45.2
			c0,12.5,0.5,24.5,1.8,31.7H1118.9z M1114.2,239.1c-20.6-0.3-36.6,4.8-36.6,20.5c0,10.4,6.7,15.4,15.5,15.4
			c9.8,0,17.8-6.6,20.4-14.9c0.5-2.1,0.8-4.5,0.8-6.9V239.1z"/>
		<path d="M1183.4,211.9c0-16.2-0.5-30.1-1-41.5h33l1.8,17.6h0.8c5.4-8.2,16.5-20.5,38.2-20.5c16.3,0,29.1,8.5,34.6,22.1h0.5
			c4.6-6.6,10.3-12,16.3-15.7c7-4.3,14.7-6.4,24-6.4c24.2,0,42.6,17.6,42.6,56.4v76.6h-38.2v-70.8c0-18.9-5.9-29.8-18.6-29.8
			c-9,0-15.5,6.4-18.1,14.1c-1,2.9-1.5,7.2-1.5,10.4v76.1h-38.2v-72.9c0-16.5-5.7-27.7-18.1-27.7c-10.1,0-16,8-18.3,14.6
			c-1.3,3.2-1.5,6.9-1.5,10.1v75.8h-38.2V211.9z"/>
		<path d="M1476.9,300.5l-2.3-13h-0.8c-8.3,10.4-21.2,16-36.1,16c-25.5,0-40.8-19.2-40.8-39.9c0-33.8,29.4-50,74-49.7v-1.9
			c0-6.9-3.6-16.8-23-16.8c-12.9,0-26.6,4.5-34.8,9.8l-7.2-26.1c8.8-5.1,26.1-11.4,49-11.4c42,0,55.5,25.5,55.5,56.1v45.2
			c0,12.5,0.5,24.5,1.8,31.7H1476.9z M1472.3,239.1c-20.6-0.3-36.6,4.8-36.6,20.5c0,10.4,6.7,15.4,15.5,15.4
			c9.8,0,17.8-6.6,20.4-14.9c0.5-2.1,0.8-4.5,0.8-6.9V239.1z"/>
		<path d="M1663.7,111.7v150c0,14.6,0.5,30.1,1,38.8h-34.8l-1.8-19.2h-0.5c-8,14.6-23.2,22.1-39.5,22.1c-29.9,0-53.9-26.3-53.9-66.8
			c-0.3-43.9,26.3-69.2,56.5-69.2c15.5,0,27.6,5.6,33.3,14.6h0.5v-70.5H1663.7z M1624.5,225.5c0-2.1-0.3-5.1-0.5-7.2
			c-2.3-10.9-10.8-19.9-23-19.9c-17.8,0-27.1,16.5-27.1,37c0,22.1,10.6,35.9,26.8,35.9c11.4,0,20.4-8,22.7-19.4c0.8-2.9,1-5.9,1-9.3
			V225.5z"/>
		<path d="M1819.8,234c0,47.6-32.8,69.4-66.6,69.4c-36.9,0-65.3-25-65.3-67s26.8-68.9,67.3-68.9C1794,167.5,1819.8,194.9,1819.8,234
			z M1728.4,235.3c0,22.3,9,39.1,25.8,39.1c15.2,0,25-15.7,25-39.1c0-19.4-7.2-39.1-25-39.1C1735.4,196.2,1728.4,216.2,1728.4,235.3
			z"/>
		<path d="M1844,213.3c0-19.2-0.5-31.7-1-42.8h33.8l1.3,23.9h1c6.4-18.9,21.9-26.9,34.1-26.9c3.6,0,5.4,0,8.3,0.5v38
			c-2.8-0.5-6.2-1.1-10.6-1.1c-14.4,0-24.2,8-26.8,20.5c-0.5,2.7-0.8,5.9-0.8,9v66H1844V213.3z"/>
		<path d="M1970.2,248.4c1.3,16.8,17.3,24.7,35.6,24.7c13.4,0,24.2-1.9,34.8-5.3l5.2,27.4c-12.9,5.3-28.6,8-45.7,8
			c-42.8,0-67.3-25.5-67.3-66.2c0-33,19.9-69.4,63.7-69.4c40.8,0,56.2,32.7,56.2,64.9c0,6.9-0.8,13-1.3,16H1970.2z M2016.3,220.7
			c0-9.8-4.1-26.3-22.2-26.3c-16.5,0-23.2,15.4-24.2,26.3H2016.3z"/>
		<path d="M2075.9,265.1c7.2,4.5,22.2,9.8,33.8,9.8c11.9,0,16.8-4.3,16.8-10.9s-3.9-9.8-18.6-14.9c-26.1-9-36.1-23.7-35.9-39.1
			c0-24.2,20.1-42.6,51.3-42.6c14.7,0,27.9,3.5,35.6,7.4l-7,27.9c-5.7-3.2-16.5-7.4-27.3-7.4c-9.5,0-15,4-15,10.6
			c0,6.1,4.9,9.3,20.4,14.9c24,8.5,34.1,21,34.3,40.2c0,24.2-18.6,42-54.7,42c-16.5,0-31.2-3.7-40.8-9L2075.9,265.1z"/>
	</g>
	<g>
		<path d="M489.5,379.7h-29.6v27.5h33v8.3h-42.9v-76.2h41.2v8.3h-31.3v24.1h29.6V379.7z"/>
		<path d="M505.4,335.2h10v80.3h-10V335.2z"/>
		<path d="M556,378.6c0-7-0.2-12.7-0.5-17.9h8.9l0.5,9.4h0.2c4.1-6.7,10.5-10.6,19.5-10.6c13.2,0,23.2,11.2,23.2,27.8
			c0,19.7-12,29.4-24.9,29.4c-7.2,0-13.6-3.2-16.9-8.6h-0.2v29.7H556V378.6z M565.9,393.2c0,1.5,0.2,2.8,0.5,4.1
			c1.8,6.9,7.8,11.7,14.9,11.7c10.5,0,16.6-8.6,16.6-21.2c0-11-5.8-20.4-16.3-20.4c-6.8,0-13.1,4.9-15,12.3
			c-0.3,1.2-0.7,2.7-0.7,4.1V393.2z"/>
		<path d="M669.9,387.7c0,20.2-14,29.1-27.3,29.1c-14.8,0-26.2-10.9-26.2-28.2c0-18.3,12-29.1,27.1-29.1
			C659.3,359.5,669.9,370.9,669.9,387.7z M626.5,388.2c0,12,6.9,21,16.6,21c9.5,0,16.6-8.9,16.6-21.3c0-9.3-4.6-21-16.4-21
			C631.6,367,626.5,377.8,626.5,388.2z"/>
		<path d="M729.8,335.2v66.2c0,4.9,0.1,10.4,0.5,14.1h-8.9l-0.5-9.5h-0.2c-3.1,6.1-9.7,10.7-18.7,10.7c-13.2,0-23.4-11.2-23.4-27.8
			c-0.1-18.2,11.2-29.4,24.5-29.4c8.4,0,14,4,16.5,8.4h0.2v-32.7H729.8z M719.8,383c0-1.2-0.1-2.9-0.5-4.2
			c-1.5-6.3-6.9-11.5-14.4-11.5c-10.3,0-16.4,9-16.4,21.2c0,11.1,5.4,20.2,16.2,20.2c6.7,0,12.8-4.4,14.6-11.9
			c0.3-1.4,0.5-2.7,0.5-4.3V383z"/>
		<path d="M751.8,389.9c0.2,13.5,8.8,19,18.8,19c7.1,0,11.4-1.2,15.2-2.8l1.7,7.1c-3.5,1.6-9.5,3.4-18.2,3.4
			c-16.9,0-26.9-11.1-26.9-27.6s9.7-29.5,25.7-29.5c17.9,0,22.6,15.7,22.6,25.8c0,2-0.2,3.6-0.3,4.6H751.8z M781,382.8
			c0.1-6.3-2.6-16.2-13.8-16.2c-10.1,0-14.5,9.3-15.3,16.2H781z"/>
		<path d="M803,377.8c0-6.4-0.1-12-0.5-17.1h8.7l0.3,10.7h0.5c2.5-7.4,8.5-12,15.2-12c1.1,0,1.9,0.1,2.8,0.3v9.4
			c-1-0.2-2-0.3-3.4-0.3c-7,0-12,5.3-13.3,12.8c-0.2,1.4-0.5,2.9-0.5,4.6v29.2H803V377.8z"/>
		<path d="M911.2,335.2v66.2c0,4.9,0.1,10.4,0.5,14.1h-8.9l-0.5-9.5H902c-3.1,6.1-9.7,10.7-18.7,10.7c-13.2,0-23.4-11.2-23.4-27.8
			c-0.1-18.2,11.2-29.4,24.5-29.4c8.4,0,14,4,16.5,8.4h0.2v-32.7H911.2z M901.2,383c0-1.2-0.1-2.9-0.5-4.2
			c-1.5-6.3-6.9-11.5-14.4-11.5c-10.3,0-16.4,9-16.4,21.2c0,11.1,5.4,20.2,16.2,20.2c6.7,0,12.8-4.4,14.6-11.9
			c0.3-1.4,0.5-2.7,0.5-4.3V383z"/>
		<path d="M933.3,389.9c0.2,13.5,8.8,19,18.8,19c7.1,0,11.4-1.2,15.2-2.8l1.7,7.1c-3.5,1.6-9.5,3.4-18.2,3.4
			c-16.9,0-26.9-11.1-26.9-27.6s9.7-29.5,25.7-29.5c17.9,0,22.6,15.7,22.6,25.8c0,2-0.2,3.6-0.3,4.6H933.3z M962.4,382.8
			c0.1-6.3-2.6-16.2-13.8-16.2c-10.1,0-14.5,9.3-15.3,16.2H962.4z"/>
		<path d="M984.4,335.2h10v80.3h-10V335.2z"/>
		<path d="M1074.1,413.5c-2.6,1.4-8.4,3.2-15.7,3.2c-16.5,0-27.3-11.2-27.3-27.9c0-16.9,11.5-29.1,29.4-29.1
			c5.9,0,11.1,1.5,13.8,2.8l-2.3,7.7c-2.4-1.4-6.1-2.6-11.5-2.6c-12.6,0-19.3,9.3-19.3,20.7c0,12.7,8.1,20.5,19,20.5
			c5.7,0,9.4-1.5,12.2-2.7L1074.1,413.5z"/>
		<path d="M1134.6,387.7c0,20.2-14,29.1-27.3,29.1c-14.8,0-26.2-10.9-26.2-28.2c0-18.3,12-29.1,27.1-29.1
			C1124,359.5,1134.6,370.9,1134.6,387.7z M1091.2,388.2c0,12,6.9,21,16.6,21c9.5,0,16.6-8.9,16.6-21.3c0-9.3-4.6-21-16.4-21
			C1096.2,367,1091.2,377.8,1091.2,388.2z M1122.7,337.1l-13.8,16.2h-7.1l10-16.2H1122.7z"/>
		<path d="M1194.4,335.2v66.2c0,4.9,0.1,10.4,0.5,14.1h-8.9l-0.5-9.5h-0.2c-3.1,6.1-9.7,10.7-18.7,10.7c-13.2,0-23.4-11.2-23.4-27.8
			c-0.1-18.2,11.2-29.4,24.5-29.4c8.4,0,14,4,16.5,8.4h0.2v-32.7H1194.4z M1184.5,383c0-1.2-0.1-2.9-0.5-4.2
			c-1.5-6.3-6.9-11.5-14.4-11.5c-10.3,0-16.4,9-16.4,21.2c0,11.1,5.4,20.2,16.2,20.2c6.7,0,12.8-4.4,14.6-11.9
			c0.3-1.4,0.5-2.7,0.5-4.3V383z"/>
		<path d="M1222,345.4c0.1,3.4-2.4,6.1-6.3,6.1c-3.5,0-6-2.7-6-6.1c0-3.5,2.6-6.2,6.2-6.2C1219.6,339.1,1222,341.9,1222,345.4z
			 M1210.9,415.5v-54.7h10v54.7H1210.9z"/>
		<path d="M1284.6,360.7c-0.2,4-0.5,8.4-0.5,15v31.8c0,12.6-2.5,20.2-7.8,25c-5.3,5-13,6.6-19.9,6.6c-6.6,0-13.8-1.6-18.2-4.5
			l2.5-7.6c3.6,2.3,9.3,4.3,16.1,4.3c10.2,0,17.6-5.3,17.6-19.1v-6.1h-0.2c-3.1,5.1-8.9,9.2-17.4,9.2c-13.6,0-23.3-11.5-23.3-26.7
			c0-18.6,12.1-29.1,24.7-29.1c9.5,0,14.7,5,17.1,9.5h0.2l0.5-8.3H1284.6z M1274.3,382.3c0-1.7-0.1-3.2-0.6-4.5
			c-1.8-5.8-6.7-10.5-13.9-10.5c-9.5,0-16.3,8-16.3,20.7c0,10.7,5.4,19.7,16.2,19.7c6.1,0,11.7-3.8,13.8-10.2
			c0.6-1.7,0.8-3.6,0.8-5.3V382.3z"/>
		<path d="M1350.2,387.7c0,20.2-14,29.1-27.3,29.1c-14.8,0-26.2-10.9-26.2-28.2c0-18.3,12-29.1,27.1-29.1
			C1339.5,359.5,1350.2,370.9,1350.2,387.7z M1306.7,388.2c0,12,6.9,21,16.6,21c9.5,0,16.6-8.9,16.6-21.3c0-9.3-4.6-21-16.4-21
			C1311.8,367,1306.7,377.8,1306.7,388.2z"/>
	</g>
	<g>
		<path class="st0" d="M165.6,145.6c11.9-2,28.5-3.5,52-3.5c23.7,0,40.6,4.5,52,13.6c10.8,8.6,18.2,22.7,18.2,39.3
			c0,16.6-5.5,30.8-15.6,40.4c-13.1,12.4-32.5,17.9-55.2,17.9c-5,0-9.6-0.3-13.1-0.8v60.8h-38.1V145.6z M203.7,222.8
			c3.3,0.8,7.3,1,12.9,1c20.4,0,33-10.3,33-27.7c0-15.6-10.8-25-30-25c-7.8,0-13.1,0.8-15.9,1.5V222.8z"/>
	</g>
</g>
<g id="Capa_2">
	<g>
	</g>
	<g>
	</g>
	<g>
	</g>
	<g>
	</g>
	<g>
	</g>
	<g>
	</g>
</g>
</svg>
